<?xml version="1.0" encoding="UTF-8"?>
<svg version="1.1" xmlns="http://www.w3.org/2000/svg" width="512" height="512">
<path d="M0 0 C3.5277622 0.51312905 4.99338357 0.96187909 7.4375 3.5 C8.50500094 6.70250282 8.564989 8.98583659 8.56892776 12.35249138 C8.57276891 13.58153627 8.57661005 14.81058117 8.5805676 16.07686985 C8.57978731 17.44804634 8.57890852 18.81922279 8.57794189 20.19039917 C8.58052482 21.64135541 8.58353778 23.09231093 8.5869453 24.54326546 C8.59502689 28.54019189 8.59680551 32.53710038 8.59754276 36.53403401 C8.59939128 40.84087053 8.60693753 45.14769769 8.61367798 49.45452881 C8.62726951 58.87587273 8.63328714 68.29721241 8.63768864 77.71856451 C8.64044937 83.5983791 8.64468638 89.47819205 8.64919281 95.35800552 C8.66138597 111.62954798 8.67168557 127.90108911 8.6750679 144.17263603 C8.67539725 145.73524001 8.67539725 145.73524001 8.67573325 147.32941175 C8.67595153 148.37367185 8.67616981 149.41793194 8.6763947 150.49383628 C8.67683817 152.60998591 8.67728473 154.72613553 8.67773438 156.84228516 C8.67806652 158.41681767 8.67806652 158.41681767 8.67840537 160.02315892 C8.68235508 177.03950777 8.69981416 194.05581384 8.7230939 211.07214616 C8.74678826 228.53208859 8.75926886 245.99200954 8.76043582 263.45196831 C8.7613536 273.25936279 8.76713183 283.06670151 8.78525543 292.87408066 C8.80063051 301.22367402 8.80579221 309.5731944 8.79751733 317.92279921 C8.79360176 322.18465528 8.79458448 326.44636425 8.80857468 330.70820236 C8.82125929 334.60788851 8.82016433 338.50731623 8.80798396 342.40700175 C8.80601749 343.81951096 8.809149 345.23203814 8.81782833 346.64452206 C8.82886459 348.56159376 8.81967227 350.4787502 8.8094368 352.39582634 C8.81003389 353.46159397 8.81063097 354.5273616 8.81124616 355.62542522 C8.38072172 358.93669586 7.40324782 360.82338749 5.4375 363.5 C2.29878812 365.06935594 -0.10105822 364.85201103 -3.5625 364.5 C-6.89211787 361.92217301 -8.38668349 360.4300578 -9.17773914 356.24542522 C-9.17313018 355.00377007 -9.16852121 353.76211493 -9.16377258 352.48283386 C-9.17018077 351.44124515 -9.17018077 351.44124515 -9.17671841 350.37861425 C-9.18493713 348.05798137 -9.15748558 345.73916672 -9.13012695 343.41870117 C-9.12871622 341.75296064 -9.12950895 340.087217 -9.13233948 338.42147827 C-9.13377408 333.90305078 -9.10437738 329.38528694 -9.06946969 324.86701369 C-9.03821344 320.14382399 -9.03527603 315.42061908 -9.02934265 310.69734192 C-9.01380206 301.75482995 -8.97277065 292.81262361 -8.9225952 283.87024623 C-8.85625864 271.78527134 -8.82926896 259.70021286 -8.80008411 247.61510181 C-8.75306893 228.57650562 -8.65345816 209.53855437 -8.5625 190.5 C-49.8125 190.83 -91.0625 191.16 -133.5625 191.5 C-112.02873602 213.49835335 -112.02873602 213.49835335 -89.5625 234.5 C-87.27042773 239.08414454 -87.26039597 240.63881161 -88.5625 245.5 C-90.625 248 -90.625 248 -93.5625 249.5 C-97.96280559 249.7127819 -100.31200606 249.42598326 -103.88037109 246.78363037 C-106.50587527 244.35123663 -108.99411802 241.82797323 -111.46875 239.2421875 C-112.88115803 237.81101694 -114.29356755 236.37984785 -115.70606232 234.94876289 C-117.67458641 232.94515022 -119.62630341 230.92552497 -121.57867432 228.90618896 C-124.51079079 225.88048019 -127.46564971 222.87701923 -130.41893768 219.87199593 C-132.72124163 217.52899395 -135.01829472 215.18141074 -137.30529785 212.82345581 C-141.67821583 208.33174181 -146.11184335 204.02912239 -150.87512207 199.95288086 C-152.87836904 198.22802768 -154.76438949 196.41237935 -156.625 194.53515625 C-157.27597656 193.88095703 -157.92695313 193.22675781 -158.59765625 192.55273438 C-159.24605469 191.89595703 -159.89445312 191.23917969 -160.5625 190.5625 C-161.24183594 189.87865234 -161.92117187 189.19480469 -162.62109375 188.49023438 C-164.27058359 186.82912841 -165.9176668 185.16571487 -167.5625 183.5 C-165.96341024 179.53887307 -163.21301808 176.8749362 -160.22998047 173.92456055 C-159.68658524 173.37926697 -159.14319 172.83397339 -158.58332825 172.27215576 C-156.78696267 170.47208859 -154.98349955 168.67932151 -153.1796875 166.88671875 C-151.92339192 165.63161626 -150.66746686 164.37614279 -149.41189575 163.12031555 C-146.7770281 160.48701213 -144.13883642 157.85710074 -141.49804688 155.22973633 C-138.1307616 151.87936191 -134.7700166 148.52252246 -131.41155815 145.16330242 C-128.81573708 142.5677549 -126.2173048 139.97483469 -123.61801529 137.382761 C-122.37920541 136.14711152 -121.14098109 134.91087466 -119.90337753 133.67401695 C-101.32257799 115.11664995 -101.32257799 115.11664995 -96.3125 114.8125 C-92.5625 115.5 -92.5625 115.5 -90.125 117.125 C-88.19018868 120.0659132 -87.63440807 121.97650456 -87.5625 125.5 C-98.96425425 144.50292375 -117.89228764 157.82978764 -133.5625 173.5 C-92.3125 173.83 -51.0625 174.16 -8.5625 174.5 C-8.64951172 156.28748047 -8.64951172 156.28748047 -8.73828125 137.70703125 C-8.76382037 130.0279895 -8.78809615 122.34897842 -8.80664062 114.66992188 C-8.83632978 102.47377025 -8.8712658 90.27779111 -8.93969727 78.08178711 C-8.98950793 69.20019408 -9.02178525 60.31874073 -9.03294247 51.4370119 C-9.0394652 46.73341914 -9.05481182 42.03022601 -9.09115028 37.32676125 C-9.1250729 32.90015267 -9.13556058 28.47410857 -9.12803841 24.04738235 C-9.12941463 22.42238104 -9.1393697 20.79736097 -9.15852737 19.172472 C-9.18340916 16.95334297 -9.17742568 14.73634451 -9.16377258 12.51716614 C-9.17068603 10.65468341 -9.17068603 10.65468341 -9.17773914 8.75457478 C-8.15568698 3.34798578 -5.39616056 0.75735587 0 0 Z " fill="#000000" transform="translate(229.5625,73.5)"/>
<path d="M0 0 C3.30980059 2.59297268 4.82492069 4.07384191 5.61523914 8.25457478 C5.61063018 9.49622993 5.60602121 10.73788507 5.60127258 12.01716614 C5.60554471 12.71155861 5.60981683 13.40595108 5.61421841 14.12138575 C5.62243713 16.44201863 5.59498558 18.76083328 5.56762695 21.08129883 C5.56621622 22.74703936 5.56700895 24.412783 5.56983948 26.07852173 C5.57127408 30.59694922 5.54187738 35.11471306 5.50696969 39.63298631 C5.47571344 44.35617601 5.47277603 49.07938092 5.46684265 53.80265808 C5.45130206 62.74517005 5.41027065 71.68737639 5.3600952 80.62975377 C5.29375864 92.71472866 5.26676896 104.79978714 5.23758411 116.88489819 C5.19056893 135.92349438 5.09095816 154.96144563 5 174 C46.25 173.67 87.5 173.34 130 173 C108.53472996 150.92255726 108.53472996 150.92255726 86 130 C83.70792773 125.41585546 83.69789597 123.86118839 85 119 C87.0625 116.5 87.0625 116.5 90 115 C94.40030559 114.7872181 96.74950606 115.07401674 100.31787109 117.71636963 C102.94337527 120.14876337 105.43161802 122.67202677 107.90625 125.2578125 C109.31865803 126.68898306 110.73106755 128.12015215 112.14356232 129.55123711 C114.11208641 131.55484978 116.06380341 133.57447503 118.01617432 135.59381104 C120.94829079 138.61951981 123.90314971 141.62298077 126.85643768 144.62800407 C129.15874163 146.97100605 131.45579472 149.31858926 133.74279785 151.67654419 C138.11571583 156.16825819 142.54934335 160.47087761 147.31262207 164.54711914 C149.31586904 166.27197232 151.20188949 168.08762065 153.0625 169.96484375 C153.71347656 170.61904297 154.36445313 171.27324219 155.03515625 171.94726562 C155.68355469 172.60404297 156.33195313 173.26082031 157 173.9375 C157.67933594 174.62134766 158.35867188 175.30519531 159.05859375 176.00976562 C160.70808359 177.67087159 162.3551668 179.33428513 164 181 C162.49634599 184.51683356 160.46566858 186.78223642 157.76904297 189.47387695 C156.89408173 190.35191483 156.01912048 191.2299527 155.11764526 192.13459778 C154.15933607 193.08600364 153.20084549 194.03722684 152.2421875 194.98828125 C151.25493461 195.97434043 150.26805286 196.96077133 149.28152466 197.94755554 C147.21159502 200.01592197 145.13835479 202.0808911 143.0625 204.14331055 C140.42163291 206.76728855 137.78729446 209.39769916 135.15524101 212.03051472 C133.11529634 214.07018517 131.07273752 216.10722111 129.02933121 218.14342308 C128.0584707 219.11113294 127.08818695 220.07942184 126.11852646 221.04833412 C121.11386896 226.04491267 116.08196119 230.93832159 110.68411255 235.51080322 C108.970514 237.02607335 107.42061095 238.62365223 105.875 240.30859375 C105.39546875 240.82744141 104.9159375 241.34628906 104.421875 241.88085938 C103.46026189 242.93361439 102.51258012 243.99923802 101.578125 245.07617188 C99.57615499 247.20461042 97.85083728 248.83506939 94.92944336 249.40136719 C91.54315324 249.47666076 89.40617614 249.27078409 86.5625 247.375 C84.62768868 244.4340868 84.07190807 242.52349544 84 239 C95.40175425 219.99707625 114.32978764 206.67021236 130 191 C88.75 190.67 47.5 190.34 5 190 C5.05800781 202.14167969 5.11601562 214.28335938 5.17578125 226.79296875 C5.20132037 234.4720105 5.22559615 242.15102158 5.24414062 249.83007812 C5.27382978 262.02622975 5.3087658 274.22220889 5.37719727 286.41821289 C5.42700793 295.29980592 5.45928525 304.18125927 5.47044247 313.0629881 C5.4769652 317.76658086 5.49231182 322.46977399 5.52865028 327.17323875 C5.5625729 331.59984733 5.57306058 336.02589143 5.56553841 340.45261765 C5.56691463 342.07761896 5.5768697 343.70263903 5.59602737 345.327528 C5.62090916 347.54665703 5.61492568 349.76365549 5.60127258 351.98283386 C5.60588155 353.22448901 5.61049051 354.46614416 5.61523914 355.74542522 C4.82492069 359.92615809 3.30980059 361.40702732 0 364 C-4.13667126 364.7386913 -6.10283364 364.55711829 -9.67906761 362.33636475 C-13.90159253 357.78463457 -12.6843575 350.79272661 -12.63491821 344.99316406 C-12.64067925 343.53222303 -12.64862026 342.07128925 -12.65855443 340.61037064 C-12.67945389 336.59496642 -12.66909887 332.5801553 -12.65362334 328.56474876 C-12.6423263 324.23473438 -12.65976434 319.90482311 -12.67352295 315.5748291 C-12.69577755 307.09206182 -12.69094431 298.60951551 -12.67645974 290.1267395 C-12.66517623 283.23376652 -12.66363275 276.34085554 -12.66907883 269.44787598 C-12.66984499 268.46751916 -12.67061116 267.48716235 -12.67140054 266.47709775 C-12.67299914 264.48563606 -12.6746202 262.49417438 -12.6762635 260.50271273 C-12.69052751 241.82068503 -12.67411805 223.13877992 -12.64726166 204.45677233 C-12.6249223 188.4203389 -12.62880224 172.38408642 -12.65185547 156.34765625 C-12.67860196 137.73332615 -12.68915415 119.11910355 -12.67379415 100.50475693 C-12.67220137 98.52054598 -12.67062952 96.53633501 -12.66907883 94.55212402 C-12.66830745 93.57580749 -12.66753607 92.59949095 -12.66674132 91.59358907 C-12.66242086 84.70742673 -12.66971831 77.82133246 -12.68147659 70.93518066 C-12.69548735 62.54531177 -12.69173171 54.15567683 -12.66507287 45.76583481 C-12.65191542 41.48363618 -12.64681489 37.20182786 -12.66331863 32.91963196 C-12.67819172 29.0013339 -12.67007463 25.0837888 -12.64343087 21.16555929 C-12.63783456 19.74639046 -12.64071223 18.32715833 -12.65280981 16.90803003 C-12.74678567 4.97052512 -12.74678567 4.97052512 -9.67906761 1.66363525 C-6.10283364 -0.55711829 -4.13667126 -0.7386913 0 0 Z " fill="#000000" transform="translate(286,74)"/>
</svg>
